<svg width="45" height="34" viewBox="0 0 45 34" fill="none" xmlns="http://www.w3.org/2000/svg">
<path d="M20.91 2.13924L19.8058 2.95625C16.8467 1.73073 13.3133 1.48563 10.1554 2.25362L9.97875 2.13924C7.83667 0.537897 4.32542 0.537897 2.18334 2.13924C0.0412524 3.74058 0.0191692 6.32233 2.18334 7.90733L2.33792 8.03805C1.3 10.3747 1.63125 12.9891 3.2875 15.1787L2.18334 15.9957C1.87353 16.2222 1.62756 16.4919 1.45968 16.7892C1.2918 17.0865 1.20535 17.4056 1.20535 17.7278C1.20535 18.05 1.2918 18.3691 1.45968 18.6664C1.62756 18.9637 1.87353 19.2334 2.18334 19.4599L5.29709 21.7802C6.6 22.7279 8.67584 22.7279 9.97875 21.7802L10.7517 21.1919L26.3867 32.7445C27.6675 33.7085 29.7654 33.7085 31.0683 32.7445L43.5454 23.5122C44.8483 22.5482 44.8483 20.9958 43.5454 20.0318L27.9325 8.47924L28.7275 7.90733C30.0083 6.94326 30.0083 5.40728 28.7275 4.44321L25.5917 2.1229C24.9677 1.66606 24.1241 1.41118 23.2463 1.41424C22.3684 1.41731 21.5282 1.67807 20.91 2.13924ZM5.38542 9.08383C5.56209 8.52826 5.87125 7.98903 6.29084 7.48249L4.52417 6.17527C4.28707 6.00962 4.11207 5.80131 4.01625 5.57068C3.72917 5.01512 3.88375 4.32883 4.52417 3.8713C5.16459 3.41377 6.07 3.28305 6.82084 3.49548C7.13 3.56084 7.395 3.69156 7.63792 3.8713L9.40459 5.17852C10.0892 4.86805 10.8179 4.63929 11.5688 4.50857C13.4679 4.10006 15.4996 4.1981 17.3104 4.78635L5.76084 13.3323C4.96584 11.9924 4.83334 10.4891 5.38542 9.08383ZM41.2046 21.7802L28.7275 31.0124L13.1146 19.4599L25.5917 10.2276L41.2046 21.7802ZM26.3867 6.17527L7.63792 20.0481L4.52417 17.7278L23.2508 3.8713L26.3867 6.17527ZM28.7275 16.5676L21.6829 21.7802L19.3421 20.0481L26.3867 14.8356L28.7275 16.5676ZM33.4092 20.0481L26.3867 25.2443L24.0238 23.5122L31.0683 18.2997L33.4092 20.0481Z" fill="#121212"/>
</svg>
