<svg width="53" height="41" viewBox="0 0 53 41" fill="none" xmlns="http://www.w3.org/2000/svg">
<path fill-rule="evenodd" clip-rule="evenodd" d="M16.0104 13.3764C17.1818 13.3764 18.3052 13.0321 19.1335 12.4192C19.9618 11.8064 20.4271 10.9751 20.4271 10.1084C20.4271 9.24164 19.9618 8.4104 19.1335 7.79752C18.3052 7.18464 17.1818 6.84033 16.0104 6.84033C14.839 6.84033 13.7156 7.18464 12.8874 7.79752C12.0591 8.4104 11.5937 9.24164 11.5937 10.1084C11.5937 10.9751 12.0591 11.8064 12.8874 12.4192C13.7156 13.0321 14.839 13.3764 16.0104 13.3764ZM16.0104 11.7424C16.5961 11.7424 17.1578 11.5702 17.5719 11.2638C17.9861 10.9574 18.2187 10.5417 18.2187 10.1084C18.2187 9.67501 17.9861 9.25939 17.5719 8.95295C17.1578 8.64651 16.5961 8.47435 16.0104 8.47435C15.4247 8.47435 14.863 8.64651 14.4489 8.95295C14.0347 9.25939 13.8021 9.67501 13.8021 10.1084C13.8021 10.5417 14.0347 10.9574 14.4489 11.2638C14.863 11.5702 15.4247 11.7424 16.0104 11.7424ZM29.8125 16.6445C29.8125 17.5112 30.2778 18.3424 31.1061 18.9553C31.9344 19.5682 33.0578 19.9125 34.2292 19.9125H35.3333V21.5465H37.5417V19.9125H38.6458C39.8172 19.9125 40.9406 19.5682 41.7689 18.9553C42.5972 18.3424 43.0625 17.5112 43.0625 16.6445C43.0625 15.7777 42.5972 14.9465 41.7689 14.3336C40.9406 13.7207 39.8172 13.3764 38.6458 13.3764H37.5417V10.1084H38.6458C39.2315 10.1084 39.7932 10.2805 40.2074 10.587C40.6215 10.8934 40.8542 11.309 40.8542 11.7424H43.0625C43.0625 10.8757 42.5972 10.0444 41.7689 9.43154C40.9406 8.81866 39.8172 8.47435 38.6458 8.47435H37.5417V6.84033H35.3333V8.47435H34.2292C33.0578 8.47435 31.9344 8.81866 31.1061 9.43154C30.2778 10.0444 29.8125 10.8757 29.8125 11.7424C29.8125 12.6091 30.2778 13.4404 31.1061 14.0533C31.9344 14.6661 33.0578 15.0104 34.2292 15.0104H35.3333V18.2785H34.2292C33.6435 18.2785 33.0818 18.1063 32.6676 17.7999C32.2535 17.4934 32.0208 17.0778 32.0208 16.6445H29.8125ZM40.8542 16.6445C40.8542 16.2111 40.6215 15.7955 40.2074 15.489C39.7932 15.1826 39.2315 15.0104 38.6458 15.0104H37.5417V18.2785H38.6458C39.2315 18.2785 39.7932 18.1063 40.2074 17.7999C40.6215 17.4934 40.8542 17.0778 40.8542 16.6445ZM32.0208 11.7424C32.0208 12.1758 32.2535 12.5914 32.6676 12.8978C33.0818 13.2043 33.6435 13.3764 34.2292 13.3764H35.3333V10.1084H34.2292C33.6435 10.1084 33.0818 10.2805 32.6676 10.587C32.2535 10.8934 32.0208 11.309 32.0208 11.7424ZM26.5 30.5336C26.5 29.4666 27.422 28.5589 28.7083 28.2215V23.1805H30.9167V23.9976H41.9583V23.1805H44.1667V28.2215C45.453 28.5589 46.375 29.4666 46.375 30.5336V36.2527H44.1667V33.8017H28.7083V36.2527H26.5V30.5336ZM37.5417 25.6316H35.3333V28.0826H37.5417V25.6316ZM29.8125 29.7166C29.5197 29.7166 29.2388 29.8027 29.0317 29.9559C28.8247 30.1091 28.7083 30.317 28.7083 30.5336V32.1677H44.1667V30.5336C44.1667 30.317 44.0503 30.1091 43.8433 29.9559C43.6362 29.8027 43.3553 29.7166 43.0625 29.7166H29.8125ZM39.75 25.6316V28.0826H41.9583V25.6316H39.75ZM33.125 25.6316H30.9167V28.0826H33.125V25.6316ZM13.8529 15.0104C12.6493 15.0104 11.4414 15.2106 10.346 15.6975C9.25402 16.1837 8.47006 16.8683 7.92681 17.6118C6.89994 19.0138 6.625 20.7687 6.625 22.4812V22.5531C6.62501 22.5774 6.62649 22.6016 6.62942 22.6258L6.63825 22.6977V22.7083L6.64046 22.7443C6.64406 22.9458 6.64443 23.1473 6.64156 23.3488C6.64156 23.4428 6.63935 23.5449 6.63715 23.6536V23.6552C6.63163 23.9878 6.625 24.3848 6.625 24.8146C6.62501 25.171 6.73008 25.5232 6.93289 25.8465C7.13571 26.1698 7.43139 26.4565 7.79931 26.6866C8.16723 26.9166 8.59855 27.0846 9.06318 27.1786C9.52782 27.2727 10.0146 27.2907 10.4896 27.2313V34.2102C10.49 34.7306 10.7588 35.2312 11.2412 35.6099C11.7236 35.9886 12.3831 36.2168 13.0852 36.2479C13.7872 36.279 14.4788 36.1106 15.0188 35.7771C15.5587 35.4437 15.9063 34.9703 15.9905 34.4537L16.0104 34.3327L16.0303 34.4537C16.1145 34.9703 16.4621 35.4437 17.0021 35.7771C17.542 36.1106 18.2336 36.279 18.9357 36.2479C19.6377 36.2168 20.2972 35.9886 20.7796 35.6099C21.262 35.2312 21.5308 34.7306 21.5312 34.2102V27.2313C22.0062 27.2907 22.493 27.2727 22.9576 27.1786C23.4223 27.0846 23.8536 26.9166 24.2215 26.6866C24.5894 26.4565 24.8851 26.1698 25.0879 25.8465C25.2908 25.5232 25.3958 25.171 25.3958 24.8146C25.3958 24.3856 25.3892 23.9894 25.3837 23.656V23.6528L25.3793 23.3488C25.376 23.1473 25.376 22.9458 25.3793 22.7443L25.3815 22.7083L25.3826 22.6977L25.3914 22.6258C25.3945 22.6016 25.396 22.5774 25.3958 22.5531V22.4812C25.3958 20.7687 25.1198 19.0146 24.094 17.6118C23.5508 16.8683 22.7668 16.1837 21.6748 15.6975C20.5795 15.2106 19.3726 15.0104 18.168 15.0104H13.8529ZM18.804 34.6187C18.9446 34.6124 19.0766 34.5667 19.1731 34.4907C19.2696 34.4148 19.3232 34.3144 19.3229 34.2102V20.7295H21.5312V25.5221C21.6991 25.5938 21.8895 25.6316 22.0833 25.6316C22.2771 25.6316 22.4675 25.5938 22.6354 25.5221C22.8033 25.4504 22.9426 25.3473 23.0396 25.2231C23.1365 25.0989 23.1875 24.958 23.1875 24.8146C23.1875 24.3963 23.1809 24.0074 23.1765 23.6732L23.1743 23.6127C23.173 23.5305 23.1719 23.4483 23.1709 23.366C23.1654 22.955 23.1665 22.6912 23.1831 22.5531L23.1875 22.5171V22.4812C23.1875 20.8504 22.9115 19.4288 22.1518 18.3896C21.762 17.8553 21.2331 17.4084 20.5364 17.0987C19.8397 16.7883 19.0391 16.6445 18.168 16.6445H13.8529C12.9817 16.6445 12.1812 16.7883 11.4844 17.0979C10.7888 17.4084 10.2588 17.8553 9.86904 18.3888C9.10827 19.4296 8.83333 20.8512 8.83333 22.4812V22.5179L8.83775 22.5539C8.85431 22.6928 8.85652 22.9559 8.8499 23.3668C8.8499 23.4624 8.84769 23.5654 8.84548 23.6732C8.83996 24.0065 8.83333 24.3963 8.83333 24.8146C8.83314 24.958 8.88403 25.099 8.98086 25.2234C9.07769 25.3477 9.21706 25.4509 9.38495 25.5227C9.55284 25.5945 9.74332 25.6323 9.93723 25.6324C10.1311 25.6324 10.3216 25.5947 10.4896 25.5229V20.7295H12.6979V34.2102C12.6988 34.3138 12.7528 34.4134 12.8492 34.4886C12.9455 34.5639 13.077 34.6092 13.2168 34.6155C13.3566 34.6217 13.4944 34.5884 13.6023 34.5222C13.7102 34.4561 13.78 34.362 13.7977 34.2592L14.914 27.3775C14.9459 27.179 15.0751 26.9959 15.2772 26.8631C15.4793 26.7304 15.7402 26.657 16.0104 26.657C16.2807 26.657 16.5415 26.7304 16.7436 26.8631C16.9457 26.9959 17.0749 27.179 17.1069 27.3775L18.2221 34.2592C18.2387 34.3628 18.3083 34.4577 18.4164 34.5245C18.5246 34.5914 18.6633 34.6251 18.804 34.6187Z" fill="#121212"/>
</svg>
