<svg width="51" height="39" viewBox="0 0 51 39" fill="none" xmlns="http://www.w3.org/2000/svg">
<path fill-rule="evenodd" clip-rule="evenodd" d="M7.64429 15.477C7.64429 14.4769 8.1812 13.5178 9.13692 12.8106C10.0926 12.1035 11.3889 11.7062 12.7404 11.7062H37.202C38.5536 11.7062 39.8498 12.1035 40.8055 12.8106C41.7612 13.5178 42.2981 14.4769 42.2981 15.477V23.0186C42.2981 24.0187 41.7612 24.9778 40.8055 25.685C39.8498 26.3922 38.5536 26.7894 37.202 26.7894H12.7404C11.3889 26.7894 10.0926 26.3922 9.13692 25.685C8.1812 24.9778 7.64429 24.0187 7.64429 23.0186V15.477ZM12.7404 13.2145C11.9295 13.2145 11.1518 13.4529 10.5783 13.8772C10.0049 14.3015 9.68275 14.8769 9.68275 15.477V23.0186C9.68275 23.6187 10.0049 24.1942 10.5783 24.6185C11.1518 25.0428 11.9295 25.2811 12.7404 25.2811H37.202C38.0129 25.2811 38.7907 25.0428 39.3641 24.6185C39.9375 24.1942 40.2597 23.6187 40.2597 23.0186V15.477C40.2597 14.8769 39.9375 14.3015 39.3641 13.8772C38.7907 13.4529 38.0129 13.2145 37.202 13.2145H12.7404Z" fill="#121212"/>
<path d="M29.04 19.2478C29.0401 19.644 28.9348 20.0363 28.73 20.4023C28.5252 20.7683 28.2251 21.1009 27.8466 21.3811C27.4681 21.6613 27.0187 21.8836 26.5241 22.0353C26.0296 22.187 25.4994 22.2651 24.964 22.2652C24.4287 22.2653 23.8985 22.1874 23.4038 22.0359C22.9091 21.8844 22.4596 21.6622 22.0809 21.3822C21.7023 21.1021 21.4018 20.7696 21.1968 20.4037C20.9918 20.0377 20.8862 19.6455 20.8861 19.2493C20.8861 18.4493 21.3156 17.682 22.0802 17.1162C22.8448 16.5505 23.8818 16.2327 24.963 16.2327C26.0443 16.2327 27.0813 16.5505 27.8459 17.1162C28.6104 17.682 29.04 18.4493 29.04 19.2493V19.2478Z" fill="#121212"/>
<path fill-rule="evenodd" clip-rule="evenodd" d="M24.965 20.7562C25.238 20.7625 25.5099 20.7282 25.7646 20.6552C26.0193 20.5822 26.2516 20.4721 26.4476 20.3314C26.6437 20.1907 26.7995 20.0223 26.9059 19.8362C27.0123 19.65 27.067 19.45 27.0669 19.2479C27.0668 19.0458 27.0118 18.8458 26.9051 18.6597C26.7985 18.4737 26.6424 18.3054 26.4462 18.1648C26.2499 18.0243 26.0175 17.9144 25.7627 17.8416C25.5079 17.7688 25.236 17.7346 24.963 17.7411C24.4224 17.7411 23.9039 17.9 23.5216 18.1829C23.1393 18.4657 22.9245 18.8494 22.9245 19.2494C22.9245 19.6495 23.1393 20.0331 23.5216 20.316C23.9039 20.5988 24.4224 20.7577 24.963 20.7577L24.965 20.7562ZM24.965 22.2646C25.508 22.2734 26.0478 22.202 26.5529 22.0544C27.058 21.9067 27.5181 21.6859 27.9063 21.4049C28.2945 21.1239 28.6029 20.7884 28.8134 20.4179C29.0239 20.0475 29.1322 19.6497 29.1321 19.2479C29.1319 18.8461 29.0233 18.4483 28.8126 18.078C28.6018 17.7076 28.2932 17.3722 27.9048 17.0913C27.5165 16.8104 27.0562 16.5898 26.551 16.4424C26.0458 16.2949 25.5059 16.2237 24.963 16.2328C23.8817 16.2328 22.8447 16.5506 22.0802 17.1163C21.3156 17.6821 20.8861 18.4494 20.8861 19.2494C20.8861 20.0495 21.3156 20.8168 22.0802 21.3825C22.8447 21.9482 23.8817 22.2661 24.963 22.2661L24.965 22.2646ZM41.3726 19.8829C41.6321 19.9391 41.8508 20.0693 41.9806 20.2448C42.1104 20.4203 42.1406 20.6268 42.0647 20.8188C41.9887 21.0108 41.8128 21.1727 41.5756 21.2687C41.3383 21.3647 41.0593 21.3871 40.7998 21.3309H40.7957L40.7916 21.3294L40.7794 21.3264L40.7427 21.3188C40.5612 21.2745 40.3817 21.2257 40.2046 21.1725C39.7111 21.0214 39.2299 20.8492 38.7634 20.6567C37.1104 19.9696 35.5971 19.1129 34.2686 18.1121C32.8768 17.0895 31.7378 15.8944 30.9031 14.5811C30.6595 14.1955 30.4504 13.7985 30.2773 13.3926C30.2148 13.2448 30.1598 13.0954 30.1121 12.9446L30.104 12.9144L30.0999 12.9054V12.9009L31.0988 12.7531M41.3726 19.8829H41.3767H41.3726ZM7.78691 17.5224C7.88206 17.3352 8.07383 17.1836 8.32002 17.101C8.44192 17.0601 8.57352 17.0374 8.70729 17.0341C8.84106 17.0308 8.9744 17.0471 9.09968 17.082L9.1058 17.0835L9.11599 17.0865L9.15064 17.097L9.27499 17.1347C9.94651 17.3475 10.6012 17.5882 11.236 17.8557C12.4693 18.3761 14.0898 19.1815 15.6268 20.3218C16.9409 21.3111 18.0386 22.4459 18.8802 23.6854C19.2206 24.1832 19.5174 24.6965 19.769 25.2224L19.8138 25.3204L19.8261 25.3491L19.8301 25.3581V25.3612L18.8558 25.5799L19.8322 25.3627C19.9103 25.5543 19.8823 25.761 19.7545 25.9374C19.6266 26.1137 19.4093 26.2453 19.1503 26.3031C18.8914 26.3609 18.612 26.3402 18.3736 26.2456C18.1353 26.151 17.9575 25.9902 17.8793 25.7986V25.7956L17.8732 25.7805C17.6454 25.2971 17.3743 24.8255 17.0619 24.3687C16.3168 23.2701 15.345 22.2641 14.1816 21.3867C12.5411 20.1825 10.6136 19.2134 8.4963 18.5284C8.46582 18.5192 8.43524 18.5102 8.40456 18.5013L8.38418 18.4953M7.78691 17.5224C7.7398 17.6151 7.71782 17.7137 7.72223 17.8127C7.72665 17.9117 7.75737 18.0091 7.81264 18.0993C7.92427 18.2814 8.12913 18.4233 8.38214 18.4937L7.78691 17.5224Z" fill="#121212"/>
<path d="M7.44042 7.54172C7.24389 7.39611 7.1336 7.1987 7.13379 6.99291C7.13398 6.78713 7.24464 6.58982 7.44143 6.44441C7.63822 6.299 7.90502 6.21739 8.18314 6.21753C8.46125 6.21767 8.72789 6.29955 8.92441 6.44517L43.5191 32.043C43.7157 32.1884 43.8261 32.3856 43.8261 32.5913C43.8261 32.7969 43.7157 32.9941 43.5191 33.1395C43.3226 33.285 43.0561 33.3666 42.7782 33.3666C42.5002 33.3666 42.2337 33.285 42.0372 33.1395L7.44042 7.54172Z" fill="#121212"/>
<path fill-rule="evenodd" clip-rule="evenodd" d="M25.4808 37.1381C38.427 37.1381 48.9231 29.3717 48.9231 19.7923C48.9231 10.2129 38.427 2.44656 25.4808 2.44656C12.5345 2.44656 2.03846 10.2129 2.03846 19.7923C2.03846 29.3717 12.5345 37.1381 25.4808 37.1381ZM25.4808 38.6464C39.5543 38.6464 50.9615 30.2058 50.9615 19.7923C50.9615 9.37883 39.5543 0.938232 25.4808 0.938232C11.4072 0.938232 0 9.37883 0 19.7923C0 30.2058 11.4072 38.6464 25.4808 38.6464Z" fill="#121212"/>
</svg>
